<svg xmlns="http://www.w3.org/2000/svg" xmlns:xlink="http://www.w3.org/1999/xlink" viewBox="0 0 66.79 91"><defs><style>.cls-1,.cls-2,.cls-3,.cls-4,.cls-5,.cls-6,.cls-7,.cls-8,.cls-9{fill:none;stroke-miterlimit:10;}.cls-1{stroke-width:5px;stroke:url(#linear-gradient);}.cls-2,.cls-4,.cls-5,.cls-7{stroke-width:4px;}.cls-2{stroke:url(#New_Gradient_Swatch_5);}.cls-3,.cls-6,.cls-8,.cls-9{stroke-width:3px;}.cls-3{stroke:url(#New_Gradient_Swatch_6);}.cls-4{stroke:url(#New_Gradient_Swatch_4);}.cls-5{stroke:url(#New_Gradient_Swatch_5-2);}.cls-6{stroke:url(#New_Gradient_Swatch_6-2);}.cls-7{stroke:url(#New_Gradient_Swatch_4-2);}.cls-8{stroke:#584770;}.cls-9{stroke:url(#New_Gradient_Swatch_4-3);}.cls-10{fill:url(#linear-gradient-2);}</style><linearGradient id="linear-gradient" x1="33.37" y1="15.87" x2="33.37" y2="83.5" gradientUnits="userSpaceOnUse"><stop offset="0" stop-color="#584770"/><stop offset="0.15" stop-color="#5b4870"/><stop offset="0.29" stop-color="#664b71"/><stop offset="0.41" stop-color="#775172"/><stop offset="0.53" stop-color="#905974"/><stop offset="0.64" stop-color="#b06376"/><stop offset="0.66" stop-color="#b56576"/><stop offset="0.75" stop-color="#ba6675"/><stop offset="0.86" stop-color="#c96873"/><stop offset="0.99" stop-color="#e26b6f"/><stop offset="1" stop-color="#e56b6f"/></linearGradient><linearGradient id="New_Gradient_Swatch_5" x1="46.88" y1="13.43" x2="18.44" y2="62.69" gradientUnits="userSpaceOnUse"><stop offset="0" stop-color="#584770"/><stop offset="0.2" stop-color="#5c4870"/><stop offset="0.4" stop-color="#684c71"/><stop offset="0.61" stop-color="#7c5372"/><stop offset="0.81" stop-color="#985c74"/><stop offset="0.97" stop-color="#b56576"/></linearGradient><linearGradient id="New_Gradient_Swatch_6" x1="31.04" y1="38.87" x2="24.23" y2="50.66" gradientUnits="userSpaceOnUse"><stop offset="0" stop-color="#604a71"/><stop offset="1" stop-color="#945973"/></linearGradient><linearGradient id="New_Gradient_Swatch_4" x1="40.67" y1="70.5" x2="30.84" y2="87.52" gradientUnits="userSpaceOnUse"><stop offset="0.33" stop-color="#b56576"/><stop offset="0.54" stop-color="#c06674"/><stop offset="0.92" stop-color="#de6a70"/><stop offset="1" stop-color="#e56b6f"/></linearGradient><linearGradient id="New_Gradient_Swatch_5-2" x1="84.08" y1="18.05" x2="61.45" y2="57.25" xlink:href="#New_Gradient_Swatch_5"/><linearGradient id="New_Gradient_Swatch_6-2" x1="79.16" y1="37.03" x2="79.16" y2="52.85" xlink:href="#New_Gradient_Swatch_6"/><linearGradient id="New_Gradient_Swatch_4-2" x1="68.93" y1="63.53" x2="68.93" y2="92.86" xlink:href="#New_Gradient_Swatch_4"/><linearGradient id="New_Gradient_Swatch_4-3" x1="42.8" y1="89.09" x2="62.22" y2="89.09" xlink:href="#New_Gradient_Swatch_4"/><linearGradient id="linear-gradient-2" x1="52.53" y1="49.08" x2="52.53" y2="66.87" gradientUnits="userSpaceOnUse"><stop offset="0.02" stop-color="#584770"/><stop offset="0.12" stop-color="#604a71"/><stop offset="0.29" stop-color="#775172"/><stop offset="0.49" stop-color="#9b5d74"/><stop offset="0.62" stop-color="#b56576"/><stop offset="1" stop-color="#e56b6f"/></linearGradient></defs><g id="mirror"><ellipse id="base" class="cls-1" cx="33.37" cy="49.68" rx="21.5" ry="31.32"/><g id="Left_edges" data-name="Left edges"><path class="cls-2" d="M36,11c4.3.12,7.91,2.57,9,6s-.46,8.12-3,9c-1.53.53-2.25-.68-5-1s-6.81.21-9,3c-2.52,3.21-1.41,8.23,0,11,1.53,3,3.3,3.15,4,6,.52,2.09-.21,2.95-1,7C29.6,59.3,31,61.57,29,63a5.32,5.32,0,0,1-7-1,5.42,5.42,0,0,1,1-7" transform="translate(-19.15 -4.53)"/><path class="cls-3" d="M28,38c-4.3,2.33-5.67,7.09-4,10s5.78,3,6,3" transform="translate(-19.15 -4.53)"/><path class="cls-4" d="M29.52,64.53a10.57,10.57,0,0,0-2,11,10.09,10.09,0,0,0,7,6c2.22.43,2.75-.52,5,0,3,.7,6.51,3.45,6,6-.32,1.59-2.16,2.89-4,3a5,5,0,0,1-5-4" transform="translate(-19.15 -4.53)"/></g><g id="Left_edges-2" data-name="Left edges"><path class="cls-5" d="M69.07,11.35c-4.3.12-7.9,2.57-9,6s.47,8.12,3,9c1.54.54,2.26-.68,5-1s6.81.22,9,3c2.53,3.21,1.41,8.23,0,11-1.53,3-3.3,3.15-4,6-.51,2.1.21,2.95,1,7,1.42,7.27.06,9.55,2,11a5.31,5.31,0,0,0,7-1,5.41,5.41,0,0,0-1-7" transform="translate(-19.15 -4.53)"/><path class="cls-6" d="M77.07,38.35c4.3,2.34,5.67,7.09,4,10s-5.78,3-6,3" transform="translate(-19.15 -4.53)"/><path class="cls-7" d="M75.57,64.85a10.58,10.58,0,0,1,2,11,10,10,0,0,1-7,6c-2.22.43-2.75-.52-5,0-3,.71-6.51,3.46-6,6,.32,1.6,2.16,2.89,4,3a5,5,0,0,0,5-4" transform="translate(-19.15 -4.53)"/></g><path id="top_tip" data-name="top tip" class="cls-8" d="M43,17a14.12,14.12,0,0,0,6-5C51,9,51,6.07,52,6s1.39,2.34,3,5a18.58,18.58,0,0,0,6,6" transform="translate(-19.15 -4.53)"/><path id="top_tip-2" data-name="top tip" class="cls-9" d="M43.48,84a16.81,16.81,0,0,1,6,5c1.93,2.64,2.43,5.1,3.54,5s1.3-2.36,3-5a15.57,15.57,0,0,1,5.46-5" transform="translate(-19.15 -4.53)"/></g><g id="m"><path class="cls-10" d="M61,50.06a3.5,3.5,0,0,1,1.07,2.55v8.76H59V53.81a2.84,2.84,0,0,0-.42-1.46,1.5,1.5,0,0,0-1.19-.57A2.73,2.73,0,0,0,55,53.07a5.31,5.31,0,0,0-.91,3v5.28H51V53.81a2.8,2.8,0,0,0-.43-1.45,1.58,1.58,0,0,0-1.24-.58,2.5,2.5,0,0,0-1.67.61A4,4,0,0,0,46.52,54a5.52,5.52,0,0,0-.41,2.09v5.28H43V49.61h2.81l.25,2.06a4.65,4.65,0,0,1,1.8-1.92,5,5,0,0,1,2.62-.67,4.23,4.23,0,0,1,2.37.63,3,3,0,0,1,1.27,1.79A5.28,5.28,0,0,1,56,49.72a4.63,4.63,0,0,1,2.31-.64A3.76,3.76,0,0,1,61,50.06Z" transform="translate(-19.15 -4.53)"/></g></svg>