<svg xmlns="http://www.w3.org/2000/svg" xmlns:xlink="http://www.w3.org/1999/xlink" viewBox="0 0 214.84 91"><defs><style>.cls-1{fill:url(#linear-gradient);}.cls-10,.cls-2,.cls-3,.cls-4,.cls-5,.cls-6,.cls-7,.cls-8,.cls-9{fill:none;stroke-miterlimit:10;}.cls-2{stroke-width:5px;stroke:url(#linear-gradient-2);}.cls-3,.cls-5,.cls-6,.cls-8{stroke-width:4px;}.cls-3{stroke:url(#New_Gradient_Swatch_5);}.cls-10,.cls-4,.cls-7,.cls-9{stroke-width:3px;}.cls-4{stroke:url(#New_Gradient_Swatch_6);}.cls-5{stroke:url(#New_Gradient_Swatch_4);}.cls-6,.cls-7{stroke:#795271;}.cls-8{stroke:url(#New_Gradient_Swatch_4-2);}.cls-9{stroke:#584770;}.cls-10{stroke:url(#New_Gradient_Swatch_4-3);}</style><linearGradient id="linear-gradient" x1="125.02" y1="48.41" x2="125.02" y2="92.48" gradientUnits="userSpaceOnUse"><stop offset="0.02" stop-color="#584770"/><stop offset="0.12" stop-color="#604a71"/><stop offset="0.29" stop-color="#775172"/><stop offset="0.49" stop-color="#9b5d74"/><stop offset="0.62" stop-color="#b56576"/><stop offset="1" stop-color="#e56b6f"/></linearGradient><linearGradient id="linear-gradient-2" x1="159.85" y1="15.87" x2="159.85" y2="83.5" gradientUnits="userSpaceOnUse"><stop offset="0" stop-color="#584770"/><stop offset="0.15" stop-color="#5b4870"/><stop offset="0.29" stop-color="#664b71"/><stop offset="0.41" stop-color="#775172"/><stop offset="0.53" stop-color="#905974"/><stop offset="0.64" stop-color="#b06376"/><stop offset="0.66" stop-color="#b56576"/><stop offset="0.75" stop-color="#ba6675"/><stop offset="0.86" stop-color="#c96873"/><stop offset="0.99" stop-color="#e26b6f"/><stop offset="1" stop-color="#e56b6f"/></linearGradient><linearGradient id="New_Gradient_Swatch_5" x1="171.81" y1="13.46" x2="143.37" y2="62.72" gradientUnits="userSpaceOnUse"><stop offset="0" stop-color="#584770"/><stop offset="0.2" stop-color="#5c4870"/><stop offset="0.4" stop-color="#684c71"/><stop offset="0.61" stop-color="#7c5372"/><stop offset="0.81" stop-color="#985c74"/><stop offset="0.97" stop-color="#b56576"/></linearGradient><linearGradient id="New_Gradient_Swatch_6" x1="155.88" y1="38.87" x2="149.04" y2="50.72" gradientUnits="userSpaceOnUse"><stop offset="0" stop-color="#604a71"/><stop offset="1" stop-color="#945973"/></linearGradient><linearGradient id="New_Gradient_Swatch_4" x1="165.6" y1="70.54" x2="155.77" y2="87.56" gradientUnits="userSpaceOnUse"><stop offset="0.33" stop-color="#b56576"/><stop offset="0.54" stop-color="#c06674"/><stop offset="0.92" stop-color="#de6a70"/><stop offset="1" stop-color="#e56b6f"/></linearGradient><linearGradient id="New_Gradient_Swatch_4-2" x1="121.55" y1="69.53" x2="111.27" y2="87.34" gradientTransform="matrix(-1, 0, 0, 1, 309.77, 0)" xlink:href="#New_Gradient_Swatch_4"/><linearGradient id="New_Gradient_Swatch_4-3" x1="167.73" y1="89.12" x2="187.15" y2="89.12" xlink:href="#New_Gradient_Swatch_4"/></defs><g id="Layer_1" data-name="Layer 1"><path class="cls-1" d="M48.68,59.3a6.17,6.17,0,0,1,1.85,4.42V78.84H45.2V65.78a4.86,4.86,0,0,0-.72-2.52,2.56,2.56,0,0,0-2.06-1,4.7,4.7,0,0,0-4,2.23,9.24,9.24,0,0,0-1.58,5.21v9.12H31.38V65.78a4.8,4.8,0,0,0-.75-2.49,2.64,2.64,0,0,0-2.13-1,4.33,4.33,0,0,0-2.88,1,7,7,0,0,0-1.95,2.79,9.61,9.61,0,0,0-.69,3.6v9.12H17.6V58.53h4.85l.43,3.56A8.27,8.27,0,0,1,26,58.77a8.82,8.82,0,0,1,4.51-1.15,7.4,7.4,0,0,1,4.11,1.08,5.09,5.09,0,0,1,2.18,3.1A9,9,0,0,1,40,58.73a7.86,7.86,0,0,1,4-1.11A6.54,6.54,0,0,1,48.68,59.3Zm20.52-10a3.2,3.2,0,0,1,2.16-.84,3.06,3.06,0,0,1,2.09.84,2.65,2.65,0,0,1,.93,2,2.56,2.56,0,0,1-.93,2,3.09,3.09,0,0,1-2.09.82,3.22,3.22,0,0,1-2.16-.82,2.53,2.53,0,0,1-1-2A2.61,2.61,0,0,1,69.2,49.25Zm4.65,9.28V78.84H68.48V58.53Zm25.49,1.78a12,12,0,0,1,3-2,6.62,6.62,0,0,1,2.62-.7L104.77,63a6.56,6.56,0,0,0-3.94.79,7,7,0,0,0-2.69,2.69,7.24,7.24,0,0,0-1,3.62v8.74H91.81V58.53h4.84L97,63.24A9.41,9.41,0,0,1,99.34,60.31Zm29.28,0a12,12,0,0,1,3-2,6.62,6.62,0,0,1,2.62-.7L134.05,63a6.56,6.56,0,0,0-3.94.79,7,7,0,0,0-2.69,2.69,7.24,7.24,0,0,0-1,3.62v8.74h-5.37V58.53h4.85l.38,4.71A9.41,9.41,0,0,1,128.62,60.31Zm98.16,0a11.81,11.81,0,0,1,3.05-2,6.58,6.58,0,0,1,2.61-.7L232.2,63a6.59,6.59,0,0,0-3.94.79,7,7,0,0,0-2.68,2.69,7.24,7.24,0,0,0-1,3.62v8.74h-5.38V58.53h4.85l.38,4.71A9.45,9.45,0,0,1,226.78,60.31Z" transform="translate(-17.6 -4.56)"/><ellipse id="base" class="cls-2" cx="159.85" cy="49.68" rx="21.5" ry="31.32"/><g id="Left_edges" data-name="Left edges"><path class="cls-3" d="M161,11.06c4.3.12,7.91,2.57,9,6s-.46,8.12-3,9c-1.53.54-2.25-.68-5-1-2.6-.3-6.81.22-9,3-2.52,3.21-1.41,8.23,0,11,1.53,3,3.3,3.16,4,6,.52,2.1-.21,2.95-1,7-1.42,7.27-.06,9.55-2,11a5.3,5.3,0,0,1-7-1,5.42,5.42,0,0,1,1-7" transform="translate(-17.6 -4.56)"/><path class="cls-4" d="M152.87,38.06c-4.47,2.34-5.89,7.1-4.15,10s6,3,6.23,3" transform="translate(-17.6 -4.56)"/><path class="cls-5" d="M154.45,64.56a10.58,10.58,0,0,0-2,11,10.07,10.07,0,0,0,7,6c2.22.43,2.75-.52,5,0,3,.71,6.51,3.46,6,6-.32,1.6-2.16,2.89-4,3a5,5,0,0,1-5-4" transform="translate(-17.6 -4.56)"/><path class="cls-6" d="M195.14,11.68c-4.3.11-7.91,2.56-9,6s.46,8.11,3,9c1.53.53,2.25-.68,5-1s6.81.21,9,3c2.52,3.21,1.41,8.22,0,11-1.54,3-3.3,3.15-4,6-.52,2.09.21,3,1,7,1.41,7.27.06,9.54,2,11a5.32,5.32,0,0,0,7-1,5.43,5.43,0,0,0-1-7" transform="translate(-17.6 -4.56)"/><path class="cls-7" d="M203.23,37.53c4.47,2.33,5.89,7.09,4.16,10s-6,3-6.24,3" transform="translate(-17.6 -4.56)"/><path class="cls-8" d="M198,65c3.72,2.25,5.52,6.39,4.53,9.93s-4.38,5.5-7,6c-2.22.43-2.75-.52-5,0-3,.71-6.51,3.46-6,6,.32,1.6,2.16,2.89,4,3a5,5,0,0,0,5-4" transform="translate(-17.6 -4.56)"/></g><path id="top_tip" data-name="top tip" class="cls-9" d="M168,17.06a14,14,0,0,0,6-5c1.93-3,2-5.95,3-6s1.39,2.35,3,5a18.48,18.48,0,0,0,6,6" transform="translate(-17.6 -4.56)"/><path id="top_tip-2" data-name="top tip" class="cls-10" d="M168.41,84a16.71,16.71,0,0,1,6,5c1.93,2.64,2.43,5.09,3.54,5s1.3-2.35,3-5a15.53,15.53,0,0,1,5.46-5" transform="translate(-17.6 -4.56)"/></g></svg>